# xmcd CD database file
#
# Track frame offsets:
#	150
#	20051
#	43838
#	63489
#	79540
#	100241
#	123792
#	148243
#
# Disc length: 2645 seconds
#
# Revision: 1
# Processed by: cddbd v1.5.2PL0 Copyright (c) Steve Scherf et al.
# Submitted via: CDex 1.70beta2
#
DISCID=6b0a5308
DTITLE=高旗&超载乐队 - 生命之诗
DYEAR=2005
DGENRE=Rock and Roll
TTITLE0=10 魔幻蓝天
TTITLE1=11 生命是一次奇遇
TTITLE2=12 不要怪我
TTITLE3=13 完美夏天
TTITLE4=14 出发
TTITLE5=15 九片棱角的回忆
TTITLE6=16 太空2001遨游
TTITLE7=17 让每个夜晚充满爱的火焰
EXTD=YEAR: 2005
EXTT0=
EXTT1=
EXTT2=
EXTT3=
EXTT4=
EXTT5=
EXTT6=
EXTT7=
PLAYORDER=
